<svg xmlns="http://www.w3.org/2000/svg" xmlns:xlink="http://www.w3.org/1999/xlink" version="1.1" x="0px" y="0px" viewBox="0 0 100 100" enable-background="new 0 0 100 100" xml:space="preserve" width="100px" height="100px"><g><g><g><g><path d="M55.7,52.7c6.2,6.7,12.4,13.5,18.6,20.2c2.2,2.4-1.4,5.9-3.5,3.5c-6.2-6.7-12.3-13.4-18.5-20.1      C46.2,63.1,40,69.7,33.9,76.4c-2.2,2.4-5.7-1.2-3.5-3.5c6.2-6.7,12.4-13.5,18.6-20.2c-6.2-6.7-12.4-13.5-18.6-20.2      c-2.2-2.4,1.4-5.9,3.5-3.5C40,35.6,46.2,42.3,52.3,49c6.2-6.7,12.3-13.4,18.5-20.1c2.2-2.4,5.7,1.2,3.5,3.5      C68.1,39.2,61.9,45.9,55.7,52.7z"/></g></g></g></g></svg>