<?xml version="1.0" encoding="utf-8"?>
<!-- Generator: Adobe Illustrator 18.1.1, SVG Export Plug-In . SVG Version: 6.00 Build 0)  -->
<svg version="1.1" xmlns="http://www.w3.org/2000/svg" xmlns:xlink="http://www.w3.org/1999/xlink" x="0px" y="0px"
	 viewBox="0 0 240.9 240.4" enable-background="new 0 0 240.9 240.4" xml:space="preserve">
<g id="Layer_1">

		<linearGradient id="SVGID_1_" gradientUnits="userSpaceOnUse" x1="188.6047" y1="354.6851" x2="421.484" y2="354.6851" gradientTransform="matrix(-4.489659e-11 1 -1 -4.489659e-11 475.041 -184.8223)">
		<stop  offset="0" style="stop-color:#FFFFFF;stop-opacity:0"/>
		<stop  offset="1" style="stop-color:#000000"/>
	</linearGradient>
	<path fill="url(#SVGID_1_)" d="M237,119.9c0,64.3-52.3,116.6-116.6,116.6S3.7,184.3,3.7,119.9C3.7,55.6,56,3.3,120.4,3.3
		S237,55.6,237,119.9z M6.6,119.9c0,62.7,51,113.7,113.7,113.7s113.7-51,113.7-113.7c0-62.7-51-113.7-113.7-113.7
		S6.6,57.2,6.6,119.9z"/>
</g>
<g id="Layer_2">
	<g>
		<defs>
			<path id="SVGID_2_" d="M237,119.9c0,64.3-52.3,116.6-116.6,116.6S3.7,184.3,3.7,119.9C3.7,55.6,56,3.3,120.4,3.3
				S237,55.6,237,119.9z M6.6,119.9c0,62.7,51,113.7,113.7,113.7s113.7-51,113.7-113.7c0-62.7-51-113.7-113.7-113.7
				S6.6,57.2,6.6,119.9z"/>
		</defs>
		<clipPath id="SVGID_3_">
			<use xlink:href="#SVGID_2_"  overflow="visible"/>
		</clipPath>
		<rect x="-10.7" y="-11.8" clip-path="url(#SVGID_3_)" width="131.1" height="248.4"/>
	</g>
</g>
</svg>
