<svg xmlns="http://www.w3.org/2000/svg" xmlns:xlink="http://www.w3.org/1999/xlink" version="1.1" x="0px" y="0px" viewBox="0 0 612 792" enable-background="new 0 0 612 792" xml:space="preserve" width="612px" height="792px"><path fill="#000000" d="M307,216c-99.4,0-180,80.6-180,180s80.6,180,180,180s180-80.6,180-180S406.4,216,307,216z M398.5,417H327  v71.6c0,11.3-9.2,20.5-20.5,20.5s-20.5-9.2-20.5-20.5V417h-71.6c-11.3,0-20.5-9.2-20.5-20.5s9.2-20.5,20.5-20.5H286v-71.6  c0-11.3,9.2-20.5,20.5-20.5s20.5,9.2,20.5,20.5V376h71.6c11.3,0,20.5,9.2,20.5,20.5S409.8,417,398.5,417z"/></svg>