<svg xmlns="http://www.w3.org/2000/svg" xmlns:xlink="http://www.w3.org/1999/xlink" version="1.1" x="0px" y="0px" viewBox="0 0 100 100" enable-background="new 0 0 100 100" xml:space="preserve" width="100px" height="100px"><g><path d="M75.4,15.5c-14-14-36.8-14-50.8,0C14.5,25.6,11.7,40.1,16,52.7C25.3,79.6,50,95,50,95s24.4-15.3,33.8-41.9   c0-0.1,0.1-0.2,0.1-0.3c0,0,0,0,0-0.1l0,0C88.3,40.1,85.5,25.6,75.4,15.5z M57.6,50.9c-4.2,4.2-11.1,4.2-15.3,0   c-4.2-4.2-4.2-11.1,0-15.3c4.2-4.2,11.1-4.2,15.3,0C61.9,39.8,61.9,46.7,57.6,50.9z"/></g></svg>