<svg xmlns="http://www.w3.org/2000/svg" xmlns:xlink="http://www.w3.org/1999/xlink" version="1.1" x="0px" y="0px" viewBox="0 0 300 300" enable-background="new 0 0 300 300" xml:space="preserve" width="300px" height="300px"><g><path fill="#000000" d="M150.853,38.599c-6.578,6.581-6.578,17.251,0,23.831l69.426,69.427l-182.421,0   c-9.308,0-16.852,7.546-16.852,16.851c0,9.307,7.544,16.851,16.852,16.851h182.498l-71.01,71.011   c-6.578,6.58-6.578,17.251,0,23.831c6.582,6.58,17.25,6.58,23.83,0l96.609-96.611c0.499-0.499,0.95-1.03,1.371-1.573   c4.126-3.067,6.811-7.97,6.811-13.507c0-5.367-2.519-10.139-6.43-13.224c-0.085-0.092-0.16-0.186-0.249-0.275l-96.609-96.609   C168.104,32.022,157.432,32.022,150.853,38.599z"/></g></svg>